# xmcd
#
# Track frame offsets: 
#        150
#        10840
#        20972
#        31197
#        42317
#        55370
#        67375
#        80067
#        94780
#        103412
#        117737
#        131497
#        144432
#        155960
#        169755
#        181370
#        194720
#        205512
#        215665
#        225385
#        235755
#        251567
#
# Disc length: 3504 seconds
#
# Revision: 3
# Processed by: cddbd v1.5.2PL0 Copyright (c) Steve Scherf et al.
# Submitted via: ExactAudioCopy v0.95b4
#
DISCID=4e0dae16
DTITLE=The Statler Brothers - A 30th Anniversary Celebration [CD1]
DYEAR=1994
DGENRE=Country
TTITLE0=Flowers On The Wall
TTITLE1=Ruthless
TTITLE2=You Can't Have Your Kate And Edith Too
TTITLE3=Bed Of Rose's
TTITLE4=Do You Remember These?
TTITLE5=The Class Of '57
TTITLE6=Woman Without A Home
TTITLE7=Carry Me Back
TTITLE8=Whatever Happened To Randolph Scott?
TTITLE9=Thank You World
TTITLE10=Susan When She Tried
TTITLE11=I'll Go To My Grave Loving You
TTITLE12=Your Picture In The Paper
TTITLE13=The Movies
TTITLE14=Silver Medals And Sweet Memories
TTITLE15=That Summer
TTITLE16=Some I Wrote
TTITLE17=Do You Know You Are My Sunshine?
TTITLE18=Who Am I To Say
TTITLE19=The Official Historian On Shirley Jean Berrell
TTITLE20=How To Be A Country Star
TTITLE21=(I'll Even Love You) Better Than I Did Then
EXTD=Mercury Records
EXTT0=
EXTT1=
EXTT2=
EXTT3=
EXTT4=
EXTT5=
EXTT6=
EXTT7=
EXTT8=
EXTT9=
EXTT10=
EXTT11=
EXTT12=
EXTT13=
EXTT14=
EXTT15=
EXTT16=
EXTT17=
EXTT18=
EXTT19=
EXTT20=
EXTT21=
PLAYORDER=
